# xmcd CD database file
#
# Track frame offsets:
#	150
#	21977
#	41892
#	95599
#	113850
#	163315
#	186478
#	221939
#	247810
#	286041
#
# Disc length: 4564 seconds
#
# Revision: 4
# Processed by: cddbd v1.5.2PL0 Copyright (c) Steve Scherf et al.
# Submitted via: CDex 1.51
#
DISCID=9611d20a
DTITLE=JIMI HENDRIX - Live At Berkeley 1st Show
DYEAR=1970
DGENRE=Hard Rock
TTITLE0=Fire
TTITLE1=Johnny B. Goode
TTITLE2=Hear My Train A Comin'
TTITLE3=Foxy Lady
TTITLE4=Machine Gun
TTITLE5=Freedom
TTITLE6=Red House
TTITLE7=Massage To Love
TTITLE8=Ezy Rider
TTITLE9=Voodoo Child(Slight Return)
EXTD=YEAR: 1970
EXTT0=
EXTT1=
EXTT2=
EXTT3=
EXTT4=
EXTT5=
EXTT6=
EXTT7=
EXTT8=
EXTT9=
PLAYORDER=
